<svg width="24" height="25" viewBox="0 0 24 25" fill="none" xmlns="http://www.w3.org/2000/svg">
<path fill-rule="evenodd" clip-rule="evenodd" d="M9.528 2.21799C9.63312 2.32308 9.70465 2.45704 9.73349 2.60286C9.76234 2.74868 9.7472 2.89979 9.69 3.03699C9.23282 4.1342 8.99828 5.31134 9 6.49999C9 8.88694 9.94821 11.1761 11.636 12.8639C13.3239 14.5518 15.6131 15.5 18 15.5C19.1886 15.5017 20.3658 15.2672 21.463 14.81C21.6001 14.7529 21.7511 14.7378 21.8968 14.7666C22.0425 14.7954 22.1763 14.8668 22.2814 14.9717C22.3865 15.0767 22.458 15.2105 22.487 15.3562C22.5159 15.5018 22.501 15.6528 22.444 15.79C21.646 17.7032 20.2997 19.3376 18.5747 20.4871C16.8496 21.6367 14.823 22.2501 12.75 22.25C6.951 22.25 2.25 17.549 2.25 11.75C2.25 7.38199 4.917 3.63799 8.71 2.05599C8.84707 1.99901 8.99797 1.98399 9.14359 2.01282C9.28921 2.04166 9.42299 2.11307 9.528 2.21799Z" fill="white"/>
</svg>
