<svg width="24" height="25" viewBox="0 0 24 25" fill="none" xmlns="http://www.w3.org/2000/svg">
<path d="M12 3.5V5.75M18.364 6.136L16.773 7.727M21 12.5H18.75M18.364 18.864L16.773 17.273M12 19.25V21.5M7.227 17.273L5.636 18.864M5.25 12.5H3M7.227 7.727L5.636 6.136M15.75 12.5C15.75 13.4946 15.3549 14.4484 14.6517 15.1517C13.9484 15.8549 12.9946 16.25 12 16.25C11.0054 16.25 10.0516 15.8549 9.34835 15.1517C8.64509 14.4484 8.25 13.4946 8.25 12.5C8.25 11.5054 8.64509 10.5516 9.34835 9.84835C10.0516 9.14509 11.0054 8.75 12 8.75C12.9946 8.75 13.9484 9.14509 14.6517 9.84835C15.3549 10.5516 15.75 11.5054 15.75 12.5Z" stroke="white" stroke-width="1.5" stroke-linecap="round" stroke-linejoin="round"/>
</svg>
